<?xml version="1.0" standalone="no"?>
<!DOCTYPE svg PUBLIC "-//W3C//DTD SVG 20010904//EN"
 "http://www.w3.org/TR/2001/REC-SVG-20010904/DTD/svg10.dtd">
<svg version="1.0" xmlns="http://www.w3.org/2000/svg"
 width="512.000000pt" height="512.000000pt" viewBox="0 0 512.000000 512.000000"
 preserveAspectRatio="xMidYMid meet">

<g transform="translate(0.000000,512.000000) scale(0.100000,-0.100000)"
fill="#000000" stroke="none">
<path d="M993 4815 c-212 -71 -393 -184 -553 -345 -218 -219 -350 -466 -411
-771 -58 -283 -8 -671 130 -1018 38 -94 141 -309 173 -360 15 -24 61 -43 86
-34 12 4 211 123 250 149 2 1 -35 80 -82 176 -175 357 -246 627 -246 939 0
242 41 423 144 634 131 267 309 465 556 619 41 25 70 46 65 46 -6 0 -56 -16
-112 -35z"/>
<path d="M650 2224 c-136 -85 -150 -99 -150 -143 0 -30 16 -57 88 -153 173
-232 428 -519 609 -687 91 -85 125 -99 166 -68 18 12 97 216 97 249 0 9 -52
73 -117 140 -191 202 -395 455 -528 656 -26 39 -51 72 -54 72 -3 0 -53 -30
-111 -66z"/>
<path d="M1595 1273 c-4 -10 -27 -75 -50 -146 -36 -105 -42 -132 -34 -155 19
-51 449 -387 771 -602 206 -139 250 -155 337 -130 29 8 171 87 171 95 0 1 -66
50 -147 107 -333 237 -712 544 -954 775 -42 40 -79 73 -82 73 -2 0 -8 -8 -12
-17z"/>
</g>
</svg>
