<?xml version="1.0" standalone="no"?>
<!DOCTYPE svg PUBLIC "-//W3C//DTD SVG 20010904//EN"
 "http://www.w3.org/TR/2001/REC-SVG-20010904/DTD/svg10.dtd">
<svg version="1.0" xmlns="http://www.w3.org/2000/svg"
 width="64.000000pt" height="64.000000pt" viewBox="0 0 64.000000 64.000000"
 preserveAspectRatio="xMidYMid meet">

<g transform="translate(0.000000,64.000000) scale(0.100000,-0.100000)"
fill="#000000" stroke="none">
<path d="M223 622 c-109 -39 -178 -112 -210 -221 -29 -102 4 -228 82 -306 122
-121 328 -121 450 0 91 92 118 241 64 356 -69 146 -241 223 -386 171z m43
-203 l54 -52 54 51 c34 32 60 50 70 46 32 -12 25 -36 -26 -90 l-51 -54 51 -54
c51 -54 58 -78 26 -90 -10 -4 -36 14 -70 46 l-54 51 -54 -51 c-54 -51 -78 -58
-90 -26 -4 10 14 36 46 70 l51 54 -52 54 c-28 30 -51 57 -51 60 0 6 30 36 36
36 3 0 30 -23 60 -51z"/>
</g>
</svg>
